<!-- <svg id="visual" viewBox="0 0 1920 1280" width="1920" height="1280" xmlns="http://www.w3.org/2000/svg" xmlns:xlink="http://www.w3.org/1999/xlink" version="1.1"><rect x="0" y="0" width="1920" height="1280" fill="#f6fbff"></rect><defs><linearGradient id="grad1_0" x1="33.3%" y1="0%" x2="100%" y2="100%"><stop offset="20%" stop-color="#56c1d7" stop-opacity="1"></stop><stop offset="80%" stop-color="#56c1d7" stop-opacity="1"></stop></linearGradient></defs><defs><linearGradient id="grad1_1" x1="33.3%" y1="0%" x2="100%" y2="100%"><stop offset="20%" stop-color="#56c1d7" stop-opacity="1"></stop><stop offset="80%" stop-color="#b1ddf0" stop-opacity="1"></stop></linearGradient></defs><defs><linearGradient id="grad1_2" x1="33.3%" y1="0%" x2="100%" y2="100%"><stop offset="20%" stop-color="#f6fbff" stop-opacity="1"></stop><stop offset="80%" stop-color="#b1ddf0" stop-opacity="1"></stop></linearGradient></defs><defs><linearGradient id="grad2_0" x1="0%" y1="0%" x2="66.7%" y2="100%"><stop offset="20%" stop-color="#56c1d7" stop-opacity="1"></stop><stop offset="80%" stop-color="#56c1d7" stop-opacity="1"></stop></linearGradient></defs><defs><linearGradient id="grad2_1" x1="0%" y1="0%" x2="66.7%" y2="100%"><stop offset="20%" stop-color="#b1ddf0" stop-opacity="1"></stop><stop offset="80%" stop-color="#56c1d7" stop-opacity="1"></stop></linearGradient></defs><defs><linearGradient id="grad2_2" x1="0%" y1="0%" x2="66.7%" y2="100%"><stop offset="20%" stop-color="#b1ddf0" stop-opacity="1"></stop><stop offset="80%" stop-color="#f6fbff" stop-opacity="1"></stop></linearGradient></defs><g transform="translate(1920, 0)"><path d="M0 750C-106.6 689.1 -213.2 628.2 -331 573.3C-448.8 518.4 -577.8 469.5 -649.5 375C-721.2 280.4 -735.6 140.2 -750 0L0 0Z" fill="#d6ebf8"></path><path d="M0 500C-71.1 459.4 -142.1 418.8 -220.7 382.2C-299.2 345.6 -385.2 313 -433 250C-480.8 186.9 -490.4 93.5 -500 0L0 0Z" fill="#88cfe5"></path><path d="M0 250C-35.5 229.7 -71.1 209.4 -110.3 191.1C-149.6 172.8 -192.6 156.5 -216.5 125C-240.4 93.5 -245.2 46.7 -250 0L0 0Z" fill="#56c1d7"></path></g><g transform="translate(0, 1280)"><path d="M0 -750C146.1 -739 292.2 -728 375 -649.5C457.8 -571 477.2 -425 529.1 -305.5C581.1 -186 665.5 -93 750 0L0 0Z" fill="#d6ebf8"></path><path d="M0 -500C97.4 -492.6 194.8 -485.3 250 -433C305.2 -380.7 318.1 -283.3 352.8 -203.7C387.4 -124 443.7 -62 500 0L0 0Z" fill="#88cfe5"></path><path d="M0 -250C48.7 -246.3 97.4 -242.7 125 -216.5C152.6 -190.3 159.1 -141.7 176.4 -101.8C193.7 -62 221.8 -31 250 0L0 0Z" fill="#56c1d7"></path></g></svg> -->
<svg id="visual" viewBox="0 0 960 540" width="960" height="540" xmlns="http://www.w3.org/2000/svg" xmlns:xlink="http://www.w3.org/1999/xlink" version="1.1"><rect x="0" y="0" width="960" height="540" fill="#FFFFFF"></rect><defs><linearGradient id="grad1_0" x1="43.8%" y1="0%" x2="100%" y2="100%"><stop offset="14.444444444444446%" stop-color="#d6ebf8" stop-opacity="1"></stop><stop offset="85.55555555555554%" stop-color="#d6ebf8" stop-opacity="1"></stop></linearGradient></defs><defs><linearGradient id="grad1_1" x1="43.8%" y1="0%" x2="100%" y2="100%"><stop offset="14.444444444444446%" stop-color="#d6ebf8" stop-opacity="1"></stop><stop offset="85.55555555555554%" stop-color="#e4f2fa" stop-opacity="1"></stop></linearGradient></defs><defs><linearGradient id="grad1_2" x1="43.8%" y1="0%" x2="100%" y2="100%"><stop offset="14.444444444444446%" stop-color="#f1f8fd" stop-opacity="1"></stop><stop offset="85.55555555555554%" stop-color="#e4f2fa" stop-opacity="1"></stop></linearGradient></defs><defs><linearGradient id="grad1_3" x1="43.8%" y1="0%" x2="100%" y2="100%"><stop offset="14.444444444444446%" stop-color="#f1f8fd" stop-opacity="1"></stop><stop offset="85.55555555555554%" stop-color="#ffffff" stop-opacity="1"></stop></linearGradient></defs><defs><linearGradient id="grad2_0" x1="0%" y1="0%" x2="56.3%" y2="100%"><stop offset="14.444444444444446%" stop-color="#d6ebf8" stop-opacity="1"></stop><stop offset="85.55555555555554%" stop-color="#d6ebf8" stop-opacity="1"></stop></linearGradient></defs><defs><linearGradient id="grad2_1" x1="0%" y1="0%" x2="56.3%" y2="100%"><stop offset="14.444444444444446%" stop-color="#e4f2fa" stop-opacity="1"></stop><stop offset="85.55555555555554%" stop-color="#d6ebf8" stop-opacity="1"></stop></linearGradient></defs><defs><linearGradient id="grad2_2" x1="0%" y1="0%" x2="56.3%" y2="100%"><stop offset="14.444444444444446%" stop-color="#e4f2fa" stop-opacity="1"></stop><stop offset="85.55555555555554%" stop-color="#f1f8fd" stop-opacity="1"></stop></linearGradient></defs><defs><linearGradient id="grad2_3" x1="0%" y1="0%" x2="56.3%" y2="100%"><stop offset="14.444444444444446%" stop-color="#ffffff" stop-opacity="1"></stop><stop offset="85.55555555555554%" stop-color="#f1f8fd" stop-opacity="1"></stop></linearGradient></defs><g transform="translate(960, 0)"><path d="M0 459C-81.7 447.8 -163.4 436.6 -229.5 397.5C-295.6 358.4 -346.3 291.4 -381.9 220.5C-417.6 149.6 -438.3 74.8 -459 0L0 0Z" fill="#f8fcfe"></path><path d="M0 344.3C-61.3 335.9 -122.5 327.5 -172.1 298.1C-221.7 268.8 -259.7 218.6 -286.4 165.4C-313.2 112.2 -328.7 56.1 -344.2 0L0 0Z" fill="#ebf5fc"></path><path d="M0 229.5C-40.8 223.9 -81.7 218.3 -114.7 198.8C-147.8 179.2 -173.1 145.7 -191 110.3C-208.8 74.8 -219.1 37.4 -229.5 0L0 0Z" fill="#ddeef9"></path><path d="M0 114.8C-20.4 112 -40.8 109.2 -57.4 99.4C-73.9 89.6 -86.6 72.9 -95.5 55.1C-104.4 37.4 -109.6 18.7 -114.7 0L0 0Z" fill="#d6ebf8"></path></g><g transform="translate(0, 540)"><path d="M0 -459C83.4 -448.8 166.8 -438.6 229.5 -397.5C292.2 -356.4 334.1 -284.4 368.9 -213C403.7 -141.6 431.4 -70.8 459 0L0 0Z" fill="#f8fcfe"></path><path d="M0 -344.2C62.6 -336.6 125.1 -329 172.1 -298.1C219.1 -267.3 250.6 -213.3 276.7 -159.8C302.8 -106.2 323.5 -53.1 344.3 0L0 0Z" fill="#ebf5fc"></path><path d="M0 -229.5C41.7 -224.4 83.4 -219.3 114.7 -198.8C146.1 -178.2 167.1 -142.2 184.5 -106.5C201.9 -70.8 215.7 -35.4 229.5 0L0 0Z" fill="#ddeef9"></path><path d="M0 -114.7C20.9 -112.2 41.7 -109.7 57.4 -99.4C73 -89.1 83.5 -71.1 92.2 -53.3C100.9 -35.4 107.8 -17.7 114.8 0L0 0Z" fill="#d6ebf8"></path></g></svg>