<svg width="100%" height="100%" id="svg" viewBox="0 0 1440 500" xmlns="http://www.w3.org/2000/svg" class="transition duration-300 ease-in-out delay-150"><path d="M 0,500 C 0,500 0,100 0,100 C 96.17435897435897,105.06410256410257 192.34871794871793,110.12820512820512 274,101 C 355.65128205128207,91.87179487179488 422.7794871794871,68.55128205128204 487,66 C 551.2205128205129,63.44871794871795 612.5333333333335,81.66666666666667 692,94 C 771.4666666666665,106.33333333333333 869.0871794871794,112.78205128205126 955,120 C 1040.9128205128206,127.21794871794874 1115.1179487179488,135.20512820512823 1194,132 C 1272.8820512820512,128.79487179487177 1356.4410256410256,114.39743589743588 1440,100 C 1440,100 1440,500 1440,500 Z" stroke="none" stroke-width="0" fill="#88cfe544" class="transition-all duration-300 ease-in-out delay-150 path-0"></path><path d="M 0,500 C 0,500 0,200 0,200 C 73.61794871794874,200.37179487179486 147.23589743589747,200.74358974358975 220,199 C 292.76410256410253,197.25641025641025 364.67435897435894,193.3974358974359 449,197 C 533.3256410256411,200.6025641025641 630.0666666666666,211.66666666666666 725,216 C 819.9333333333334,220.33333333333334 913.0589743589746,217.93589743589743 998,219 C 1082.9410256410254,220.06410256410257 1159.697435897436,224.5897435897436 1232,222 C 1304.302564102564,219.4102564102564 1372.1512820512821,209.7051282051282 1440,200 C 1440,200 1440,500 1440,500 Z" stroke="none" stroke-width="0" fill="#88cfe566" class="transition-all duration-300 ease-in-out delay-150 path-1"></path><path d="M 0,500 C 0,500 0,300 0,300 C 79.34102564102562,304.24615384615385 158.68205128205125,308.4923076923077 239,319 C 319.31794871794875,329.5076923076923 400.6128205128206,346.2769230769231 491,331 C 581.3871794871794,315.7230769230769 680.8666666666667,268.4 763,266 C 845.1333333333333,263.6 909.9205128205131,306.1230769230769 977,325 C 1044.079487179487,343.8769230769231 1113.4512820512819,339.10769230769233 1191,331 C 1268.5487179487181,322.89230769230767 1354.274358974359,311.44615384615383 1440,300 C 1440,300 1440,500 1440,500 Z" stroke="none" stroke-width="0" fill="#88cfe588" class="transition-all duration-300 ease-in-out delay-150 path-2"></path><path d="M 0,500 C 0,500 0,400 0,400 C 96.72820512820513,398.8461538461538 193.45641025641027,397.6923076923077 284,395 C 374.54358974358973,392.3076923076923 458.90256410256404,388.0769230769231 523,390 C 587.097435897436,391.9230769230769 630.9333333333334,400 692,407 C 753.0666666666666,414 831.3641025641025,419.9230769230769 930,410 C 1028.6358974358975,400.0769230769231 1147.6102564102564,374.30769230769226 1236,370 C 1324.3897435897436,365.69230769230774 1382.1948717948717,382.84615384615387 1440,400 C 1440,400 1440,500 1440,500 Z" stroke="none" stroke-width="0" fill="#88cfe5ff" class="transition-all duration-300 ease-in-out delay-150 path-3"></path></svg>